<mxfile host="app.diagrams.net" agent="Mozilla/5.0 (Windows NT 10.0; Win64; x64) AppleWebKit/537.36 (KHTML, like Gecko) Chrome/131.0.0.0 Safari/537.36" version="25.0.3">
  <diagram name="Page-1" id="woil5i6g1KJqJUpIMtto">
    <mxGraphModel dx="1687" dy="878" grid="1" gridSize="10" guides="1" tooltips="1" connect="1" arrows="1" fold="1" page="1" pageScale="1" pageWidth="850" pageHeight="1100" math="0" shadow="0">
      <root>
        <mxCell id="0" />
        <mxCell id="1" parent="0" />
        <mxCell id="eyoQggwB_Yk68HoPjoZL-32" style="edgeStyle=orthogonalEdgeStyle;rounded=0;orthogonalLoop=1;jettySize=auto;html=1;entryX=0.5;entryY=0;entryDx=0;entryDy=0;" edge="1" parent="1" source="eyoQggwB_Yk68HoPjoZL-1" target="eyoQggwB_Yk68HoPjoZL-2">
          <mxGeometry relative="1" as="geometry" />
        </mxCell>
        <mxCell id="eyoQggwB_Yk68HoPjoZL-1" value="&lt;font style=&quot;font-size: 24px;&quot;&gt;start&lt;/font&gt;" style="strokeWidth=2;html=1;shape=mxgraph.flowchart.start_1;whiteSpace=wrap;" vertex="1" parent="1">
          <mxGeometry x="161" y="70" width="100" height="60" as="geometry" />
        </mxCell>
        <mxCell id="eyoQggwB_Yk68HoPjoZL-9" style="edgeStyle=orthogonalEdgeStyle;rounded=0;orthogonalLoop=1;jettySize=auto;html=1;entryX=0.5;entryY=0;entryDx=0;entryDy=0;" edge="1" parent="1" source="eyoQggwB_Yk68HoPjoZL-2" target="eyoQggwB_Yk68HoPjoZL-6">
          <mxGeometry relative="1" as="geometry" />
        </mxCell>
        <mxCell id="eyoQggwB_Yk68HoPjoZL-14" style="edgeStyle=orthogonalEdgeStyle;rounded=0;orthogonalLoop=1;jettySize=auto;html=1;entryX=0.5;entryY=0;entryDx=0;entryDy=0;" edge="1" parent="1" source="eyoQggwB_Yk68HoPjoZL-2" target="eyoQggwB_Yk68HoPjoZL-13">
          <mxGeometry relative="1" as="geometry" />
        </mxCell>
        <mxCell id="eyoQggwB_Yk68HoPjoZL-2" value="while (1)" style="rhombus;whiteSpace=wrap;html=1;" vertex="1" parent="1">
          <mxGeometry x="140" y="190" width="142" height="70" as="geometry" />
        </mxCell>
        <mxCell id="eyoQggwB_Yk68HoPjoZL-5" value="&lt;font style=&quot;font-size: 24px;&quot;&gt;end&lt;/font&gt;" style="strokeWidth=2;html=1;shape=mxgraph.flowchart.start_1;whiteSpace=wrap;" vertex="1" parent="1">
          <mxGeometry x="466" y="1100" width="100" height="60" as="geometry" />
        </mxCell>
        <mxCell id="eyoQggwB_Yk68HoPjoZL-10" style="edgeStyle=orthogonalEdgeStyle;rounded=0;orthogonalLoop=1;jettySize=auto;html=1;entryX=0.5;entryY=0;entryDx=0;entryDy=0;" edge="1" parent="1" source="eyoQggwB_Yk68HoPjoZL-6" target="eyoQggwB_Yk68HoPjoZL-7">
          <mxGeometry relative="1" as="geometry" />
        </mxCell>
        <mxCell id="eyoQggwB_Yk68HoPjoZL-6" value="input input" style="shape=parallelogram;perimeter=parallelogramPerimeter;whiteSpace=wrap;html=1;fixedSize=1;" vertex="1" parent="1">
          <mxGeometry x="310" y="270" width="132" height="30" as="geometry" />
        </mxCell>
        <mxCell id="eyoQggwB_Yk68HoPjoZL-11" style="edgeStyle=orthogonalEdgeStyle;rounded=0;orthogonalLoop=1;jettySize=auto;html=1;entryX=0.5;entryY=0;entryDx=0;entryDy=0;" edge="1" parent="1" source="eyoQggwB_Yk68HoPjoZL-7" target="eyoQggwB_Yk68HoPjoZL-8">
          <mxGeometry relative="1" as="geometry" />
        </mxCell>
        <mxCell id="eyoQggwB_Yk68HoPjoZL-7" value="if (input == -1)" style="rhombus;whiteSpace=wrap;html=1;" vertex="1" parent="1">
          <mxGeometry x="305" y="340" width="142" height="70" as="geometry" />
        </mxCell>
        <mxCell id="eyoQggwB_Yk68HoPjoZL-12" style="edgeStyle=orthogonalEdgeStyle;rounded=0;orthogonalLoop=1;jettySize=auto;html=1;entryX=1;entryY=1;entryDx=0;entryDy=0;" edge="1" parent="1" source="eyoQggwB_Yk68HoPjoZL-8" target="eyoQggwB_Yk68HoPjoZL-2">
          <mxGeometry relative="1" as="geometry" />
        </mxCell>
        <mxCell id="eyoQggwB_Yk68HoPjoZL-8" value="arr[n++] = input" style="rounded=1;whiteSpace=wrap;html=1;absoluteArcSize=1;arcSize=14;strokeWidth=2;" vertex="1" parent="1">
          <mxGeometry x="286" y="450" width="180" height="40" as="geometry" />
        </mxCell>
        <mxCell id="eyoQggwB_Yk68HoPjoZL-17" style="edgeStyle=orthogonalEdgeStyle;rounded=0;orthogonalLoop=1;jettySize=auto;html=1;entryX=0.5;entryY=0;entryDx=0;entryDy=0;" edge="1" parent="1" source="eyoQggwB_Yk68HoPjoZL-13" target="eyoQggwB_Yk68HoPjoZL-15">
          <mxGeometry relative="1" as="geometry" />
        </mxCell>
        <mxCell id="eyoQggwB_Yk68HoPjoZL-13" value="sort_ascending(arr, n)" style="verticalLabelPosition=bottom;verticalAlign=top;html=1;shape=process;whiteSpace=wrap;rounded=1;size=0.14;arcSize=6;" vertex="1" parent="1">
          <mxGeometry x="151" y="510" width="120" height="40" as="geometry" />
        </mxCell>
        <mxCell id="eyoQggwB_Yk68HoPjoZL-18" style="edgeStyle=orthogonalEdgeStyle;rounded=0;orthogonalLoop=1;jettySize=auto;html=1;entryX=0.5;entryY=0;entryDx=0;entryDy=0;" edge="1" parent="1" source="eyoQggwB_Yk68HoPjoZL-15" target="eyoQggwB_Yk68HoPjoZL-16">
          <mxGeometry relative="1" as="geometry" />
        </mxCell>
        <mxCell id="eyoQggwB_Yk68HoPjoZL-21" style="edgeStyle=orthogonalEdgeStyle;rounded=0;orthogonalLoop=1;jettySize=auto;html=1;entryX=0.5;entryY=0;entryDx=0;entryDy=0;" edge="1" parent="1" source="eyoQggwB_Yk68HoPjoZL-15" target="eyoQggwB_Yk68HoPjoZL-20">
          <mxGeometry relative="1" as="geometry" />
        </mxCell>
        <mxCell id="eyoQggwB_Yk68HoPjoZL-15" value="for ( i &amp;lt; n, i++)" style="rhombus;whiteSpace=wrap;html=1;" vertex="1" parent="1">
          <mxGeometry x="140" y="610" width="142" height="70" as="geometry" />
        </mxCell>
        <mxCell id="eyoQggwB_Yk68HoPjoZL-19" style="edgeStyle=orthogonalEdgeStyle;rounded=0;orthogonalLoop=1;jettySize=auto;html=1;entryX=1;entryY=1;entryDx=0;entryDy=0;" edge="1" parent="1" source="eyoQggwB_Yk68HoPjoZL-16" target="eyoQggwB_Yk68HoPjoZL-15">
          <mxGeometry relative="1" as="geometry" />
        </mxCell>
        <mxCell id="eyoQggwB_Yk68HoPjoZL-16" value="output arr[i]" style="shape=parallelogram;perimeter=parallelogramPerimeter;whiteSpace=wrap;html=1;fixedSize=1;" vertex="1" parent="1">
          <mxGeometry x="310" y="690" width="132" height="30" as="geometry" />
        </mxCell>
        <mxCell id="eyoQggwB_Yk68HoPjoZL-25" style="edgeStyle=orthogonalEdgeStyle;rounded=0;orthogonalLoop=1;jettySize=auto;html=1;entryX=0.5;entryY=0;entryDx=0;entryDy=0;" edge="1" parent="1" source="eyoQggwB_Yk68HoPjoZL-20" target="eyoQggwB_Yk68HoPjoZL-22">
          <mxGeometry relative="1" as="geometry" />
        </mxCell>
        <mxCell id="eyoQggwB_Yk68HoPjoZL-20" value="sort_descending(arr, n)" style="verticalLabelPosition=bottom;verticalAlign=top;html=1;shape=process;whiteSpace=wrap;rounded=1;size=0.14;arcSize=6;" vertex="1" parent="1">
          <mxGeometry x="144" y="750" width="135" height="40" as="geometry" />
        </mxCell>
        <mxCell id="eyoQggwB_Yk68HoPjoZL-24" style="edgeStyle=orthogonalEdgeStyle;rounded=0;orthogonalLoop=1;jettySize=auto;html=1;entryX=0.5;entryY=0;entryDx=0;entryDy=0;" edge="1" parent="1" source="eyoQggwB_Yk68HoPjoZL-22" target="eyoQggwB_Yk68HoPjoZL-23">
          <mxGeometry relative="1" as="geometry" />
        </mxCell>
        <mxCell id="eyoQggwB_Yk68HoPjoZL-22" value="for ( i &amp;lt; n, i++)" style="rhombus;whiteSpace=wrap;html=1;" vertex="1" parent="1">
          <mxGeometry x="140.5" y="860" width="142" height="70" as="geometry" />
        </mxCell>
        <mxCell id="eyoQggwB_Yk68HoPjoZL-26" style="edgeStyle=orthogonalEdgeStyle;rounded=0;orthogonalLoop=1;jettySize=auto;html=1;entryX=1;entryY=1;entryDx=0;entryDy=0;" edge="1" parent="1" source="eyoQggwB_Yk68HoPjoZL-23" target="eyoQggwB_Yk68HoPjoZL-22">
          <mxGeometry relative="1" as="geometry" />
        </mxCell>
        <mxCell id="eyoQggwB_Yk68HoPjoZL-23" value="output arr[i]" style="shape=parallelogram;perimeter=parallelogramPerimeter;whiteSpace=wrap;html=1;fixedSize=1;" vertex="1" parent="1">
          <mxGeometry x="315" y="950" width="132" height="30" as="geometry" />
        </mxCell>
        <mxCell id="eyoQggwB_Yk68HoPjoZL-28" style="edgeStyle=orthogonalEdgeStyle;rounded=0;orthogonalLoop=1;jettySize=auto;html=1;entryX=0.5;entryY=0;entryDx=0;entryDy=0;entryPerimeter=0;" edge="1" parent="1" source="eyoQggwB_Yk68HoPjoZL-7" target="eyoQggwB_Yk68HoPjoZL-5">
          <mxGeometry relative="1" as="geometry" />
        </mxCell>
        <mxCell id="eyoQggwB_Yk68HoPjoZL-33" style="edgeStyle=orthogonalEdgeStyle;rounded=0;orthogonalLoop=1;jettySize=auto;html=1;entryX=0.5;entryY=0;entryDx=0;entryDy=0;entryPerimeter=0;" edge="1" parent="1" source="eyoQggwB_Yk68HoPjoZL-22" target="eyoQggwB_Yk68HoPjoZL-5">
          <mxGeometry relative="1" as="geometry">
            <Array as="points">
              <mxPoint x="212" y="1050" />
              <mxPoint x="516" y="1050" />
            </Array>
          </mxGeometry>
        </mxCell>
        <mxCell id="eyoQggwB_Yk68HoPjoZL-37" style="edgeStyle=orthogonalEdgeStyle;rounded=0;orthogonalLoop=1;jettySize=auto;html=1;entryX=0.5;entryY=0;entryDx=0;entryDy=0;" edge="1" parent="1" source="eyoQggwB_Yk68HoPjoZL-34" target="eyoQggwB_Yk68HoPjoZL-35">
          <mxGeometry relative="1" as="geometry" />
        </mxCell>
        <mxCell id="eyoQggwB_Yk68HoPjoZL-34" value="&lt;font style=&quot;font-size: 16px;&quot;&gt;sort_ascending(arr[], n)&lt;/font&gt;" style="strokeWidth=2;html=1;shape=mxgraph.flowchart.start_1;whiteSpace=wrap;" vertex="1" parent="1">
          <mxGeometry x="720" y="70" width="180" height="70" as="geometry" />
        </mxCell>
        <mxCell id="eyoQggwB_Yk68HoPjoZL-38" style="edgeStyle=orthogonalEdgeStyle;rounded=0;orthogonalLoop=1;jettySize=auto;html=1;entryX=0.5;entryY=0;entryDx=0;entryDy=0;" edge="1" parent="1" source="eyoQggwB_Yk68HoPjoZL-35" target="eyoQggwB_Yk68HoPjoZL-36">
          <mxGeometry relative="1" as="geometry" />
        </mxCell>
        <mxCell id="eyoQggwB_Yk68HoPjoZL-35" value="for ( i &amp;lt; n-1, i++)" style="rhombus;whiteSpace=wrap;html=1;" vertex="1" parent="1">
          <mxGeometry x="739" y="220" width="142" height="70" as="geometry" />
        </mxCell>
        <mxCell id="eyoQggwB_Yk68HoPjoZL-43" style="edgeStyle=orthogonalEdgeStyle;rounded=0;orthogonalLoop=1;jettySize=auto;html=1;entryX=1;entryY=1;entryDx=0;entryDy=0;" edge="1" parent="1" source="eyoQggwB_Yk68HoPjoZL-36" target="eyoQggwB_Yk68HoPjoZL-35">
          <mxGeometry relative="1" as="geometry" />
        </mxCell>
        <mxCell id="eyoQggwB_Yk68HoPjoZL-44" style="edgeStyle=orthogonalEdgeStyle;rounded=0;orthogonalLoop=1;jettySize=auto;html=1;entryX=0.5;entryY=0;entryDx=0;entryDy=0;" edge="1" parent="1" source="eyoQggwB_Yk68HoPjoZL-36" target="eyoQggwB_Yk68HoPjoZL-39">
          <mxGeometry relative="1" as="geometry" />
        </mxCell>
        <mxCell id="eyoQggwB_Yk68HoPjoZL-36" value="for ( j &amp;lt; n-i-1, j++)" style="rhombus;whiteSpace=wrap;html=1;" vertex="1" parent="1">
          <mxGeometry x="900" y="330" width="142" height="70" as="geometry" />
        </mxCell>
        <mxCell id="eyoQggwB_Yk68HoPjoZL-46" style="edgeStyle=orthogonalEdgeStyle;rounded=0;orthogonalLoop=1;jettySize=auto;html=1;entryX=0.5;entryY=0;entryDx=0;entryDy=0;" edge="1" parent="1" source="eyoQggwB_Yk68HoPjoZL-39" target="eyoQggwB_Yk68HoPjoZL-40">
          <mxGeometry relative="1" as="geometry" />
        </mxCell>
        <mxCell id="eyoQggwB_Yk68HoPjoZL-39" value="if (arr[j] &amp;gt; arr[j] + 1" style="rhombus;whiteSpace=wrap;html=1;" vertex="1" parent="1">
          <mxGeometry x="1051" y="410" width="142" height="70" as="geometry" />
        </mxCell>
        <mxCell id="eyoQggwB_Yk68HoPjoZL-47" style="edgeStyle=orthogonalEdgeStyle;rounded=0;orthogonalLoop=1;jettySize=auto;html=1;entryX=0.5;entryY=0;entryDx=0;entryDy=0;" edge="1" parent="1" source="eyoQggwB_Yk68HoPjoZL-40" target="eyoQggwB_Yk68HoPjoZL-41">
          <mxGeometry relative="1" as="geometry" />
        </mxCell>
        <mxCell id="eyoQggwB_Yk68HoPjoZL-40" value="temp = arr[j]" style="rounded=1;whiteSpace=wrap;html=1;absoluteArcSize=1;arcSize=14;strokeWidth=2;" vertex="1" parent="1">
          <mxGeometry x="1053" y="520" width="138" height="40" as="geometry" />
        </mxCell>
        <mxCell id="eyoQggwB_Yk68HoPjoZL-48" style="edgeStyle=orthogonalEdgeStyle;rounded=0;orthogonalLoop=1;jettySize=auto;html=1;entryX=0.5;entryY=0;entryDx=0;entryDy=0;" edge="1" parent="1" source="eyoQggwB_Yk68HoPjoZL-41" target="eyoQggwB_Yk68HoPjoZL-42">
          <mxGeometry relative="1" as="geometry" />
        </mxCell>
        <mxCell id="eyoQggwB_Yk68HoPjoZL-41" value="arr[j] = arr[j+1]" style="rounded=1;whiteSpace=wrap;html=1;absoluteArcSize=1;arcSize=14;strokeWidth=2;" vertex="1" parent="1">
          <mxGeometry x="1053" y="600" width="138" height="40" as="geometry" />
        </mxCell>
        <mxCell id="eyoQggwB_Yk68HoPjoZL-49" style="edgeStyle=orthogonalEdgeStyle;rounded=0;orthogonalLoop=1;jettySize=auto;html=1;entryX=1;entryY=1;entryDx=0;entryDy=0;" edge="1" parent="1" source="eyoQggwB_Yk68HoPjoZL-42" target="eyoQggwB_Yk68HoPjoZL-36">
          <mxGeometry relative="1" as="geometry" />
        </mxCell>
        <mxCell id="eyoQggwB_Yk68HoPjoZL-42" value="arr[j+1] = temp" style="rounded=1;whiteSpace=wrap;html=1;absoluteArcSize=1;arcSize=14;strokeWidth=2;" vertex="1" parent="1">
          <mxGeometry x="1053" y="680" width="138" height="40" as="geometry" />
        </mxCell>
        <mxCell id="eyoQggwB_Yk68HoPjoZL-45" style="edgeStyle=orthogonalEdgeStyle;rounded=0;orthogonalLoop=1;jettySize=auto;html=1;exitX=0.5;exitY=1;exitDx=0;exitDy=0;" edge="1" parent="1" source="eyoQggwB_Yk68HoPjoZL-40" target="eyoQggwB_Yk68HoPjoZL-40">
          <mxGeometry relative="1" as="geometry" />
        </mxCell>
        <mxCell id="eyoQggwB_Yk68HoPjoZL-51" value="&lt;font style=&quot;font-size: 24px;&quot;&gt;end&lt;/font&gt;" style="strokeWidth=2;html=1;shape=mxgraph.flowchart.start_1;whiteSpace=wrap;" vertex="1" parent="1">
          <mxGeometry x="760" y="730" width="100" height="60" as="geometry" />
        </mxCell>
        <mxCell id="eyoQggwB_Yk68HoPjoZL-52" style="edgeStyle=orthogonalEdgeStyle;rounded=0;orthogonalLoop=1;jettySize=auto;html=1;entryX=0.5;entryY=0;entryDx=0;entryDy=0;entryPerimeter=0;" edge="1" parent="1" source="eyoQggwB_Yk68HoPjoZL-35" target="eyoQggwB_Yk68HoPjoZL-51">
          <mxGeometry relative="1" as="geometry" />
        </mxCell>
        <mxCell id="eyoQggwB_Yk68HoPjoZL-53" style="edgeStyle=orthogonalEdgeStyle;rounded=0;orthogonalLoop=1;jettySize=auto;html=1;entryX=0.5;entryY=0;entryDx=0;entryDy=0;" edge="1" parent="1" source="eyoQggwB_Yk68HoPjoZL-54" target="eyoQggwB_Yk68HoPjoZL-56">
          <mxGeometry relative="1" as="geometry" />
        </mxCell>
        <mxCell id="eyoQggwB_Yk68HoPjoZL-54" value="&lt;font style=&quot;font-size: 16px;&quot;&gt;sort_descending(arr[], n)&lt;/font&gt;" style="strokeWidth=2;html=1;shape=mxgraph.flowchart.start_1;whiteSpace=wrap;" vertex="1" parent="1">
          <mxGeometry x="1310" y="70" width="180" height="70" as="geometry" />
        </mxCell>
        <mxCell id="eyoQggwB_Yk68HoPjoZL-55" style="edgeStyle=orthogonalEdgeStyle;rounded=0;orthogonalLoop=1;jettySize=auto;html=1;entryX=0.5;entryY=0;entryDx=0;entryDy=0;" edge="1" parent="1" source="eyoQggwB_Yk68HoPjoZL-56" target="eyoQggwB_Yk68HoPjoZL-59">
          <mxGeometry relative="1" as="geometry" />
        </mxCell>
        <mxCell id="eyoQggwB_Yk68HoPjoZL-56" value="for ( i &amp;lt; n-1, i++)" style="rhombus;whiteSpace=wrap;html=1;" vertex="1" parent="1">
          <mxGeometry x="1329" y="220" width="142" height="70" as="geometry" />
        </mxCell>
        <mxCell id="eyoQggwB_Yk68HoPjoZL-57" style="edgeStyle=orthogonalEdgeStyle;rounded=0;orthogonalLoop=1;jettySize=auto;html=1;entryX=1;entryY=1;entryDx=0;entryDy=0;" edge="1" parent="1" source="eyoQggwB_Yk68HoPjoZL-59" target="eyoQggwB_Yk68HoPjoZL-56">
          <mxGeometry relative="1" as="geometry" />
        </mxCell>
        <mxCell id="eyoQggwB_Yk68HoPjoZL-58" style="edgeStyle=orthogonalEdgeStyle;rounded=0;orthogonalLoop=1;jettySize=auto;html=1;entryX=0.5;entryY=0;entryDx=0;entryDy=0;" edge="1" parent="1" source="eyoQggwB_Yk68HoPjoZL-59" target="eyoQggwB_Yk68HoPjoZL-61">
          <mxGeometry relative="1" as="geometry" />
        </mxCell>
        <mxCell id="eyoQggwB_Yk68HoPjoZL-59" value="for ( j &amp;lt; n-i-1, j++)" style="rhombus;whiteSpace=wrap;html=1;" vertex="1" parent="1">
          <mxGeometry x="1490" y="330" width="142" height="70" as="geometry" />
        </mxCell>
        <mxCell id="eyoQggwB_Yk68HoPjoZL-60" style="edgeStyle=orthogonalEdgeStyle;rounded=0;orthogonalLoop=1;jettySize=auto;html=1;entryX=0.5;entryY=0;entryDx=0;entryDy=0;" edge="1" parent="1" source="eyoQggwB_Yk68HoPjoZL-61" target="eyoQggwB_Yk68HoPjoZL-63">
          <mxGeometry relative="1" as="geometry" />
        </mxCell>
        <mxCell id="eyoQggwB_Yk68HoPjoZL-61" value="if (arr[j] &amp;lt; arr[j] + 1" style="rhombus;whiteSpace=wrap;html=1;" vertex="1" parent="1">
          <mxGeometry x="1641" y="410" width="142" height="70" as="geometry" />
        </mxCell>
        <mxCell id="eyoQggwB_Yk68HoPjoZL-62" style="edgeStyle=orthogonalEdgeStyle;rounded=0;orthogonalLoop=1;jettySize=auto;html=1;entryX=0.5;entryY=0;entryDx=0;entryDy=0;" edge="1" parent="1" source="eyoQggwB_Yk68HoPjoZL-63" target="eyoQggwB_Yk68HoPjoZL-65">
          <mxGeometry relative="1" as="geometry" />
        </mxCell>
        <mxCell id="eyoQggwB_Yk68HoPjoZL-63" value="temp = arr[j]" style="rounded=1;whiteSpace=wrap;html=1;absoluteArcSize=1;arcSize=14;strokeWidth=2;" vertex="1" parent="1">
          <mxGeometry x="1643" y="520" width="138" height="40" as="geometry" />
        </mxCell>
        <mxCell id="eyoQggwB_Yk68HoPjoZL-64" style="edgeStyle=orthogonalEdgeStyle;rounded=0;orthogonalLoop=1;jettySize=auto;html=1;entryX=0.5;entryY=0;entryDx=0;entryDy=0;" edge="1" parent="1" source="eyoQggwB_Yk68HoPjoZL-65" target="eyoQggwB_Yk68HoPjoZL-67">
          <mxGeometry relative="1" as="geometry" />
        </mxCell>
        <mxCell id="eyoQggwB_Yk68HoPjoZL-65" value="arr[j] = arr[j+1]" style="rounded=1;whiteSpace=wrap;html=1;absoluteArcSize=1;arcSize=14;strokeWidth=2;" vertex="1" parent="1">
          <mxGeometry x="1643" y="600" width="138" height="40" as="geometry" />
        </mxCell>
        <mxCell id="eyoQggwB_Yk68HoPjoZL-66" style="edgeStyle=orthogonalEdgeStyle;rounded=0;orthogonalLoop=1;jettySize=auto;html=1;entryX=1;entryY=1;entryDx=0;entryDy=0;" edge="1" parent="1" source="eyoQggwB_Yk68HoPjoZL-67" target="eyoQggwB_Yk68HoPjoZL-59">
          <mxGeometry relative="1" as="geometry" />
        </mxCell>
        <mxCell id="eyoQggwB_Yk68HoPjoZL-67" value="arr[j+1] = temp" style="rounded=1;whiteSpace=wrap;html=1;absoluteArcSize=1;arcSize=14;strokeWidth=2;" vertex="1" parent="1">
          <mxGeometry x="1643" y="680" width="138" height="40" as="geometry" />
        </mxCell>
        <mxCell id="eyoQggwB_Yk68HoPjoZL-68" style="edgeStyle=orthogonalEdgeStyle;rounded=0;orthogonalLoop=1;jettySize=auto;html=1;exitX=0.5;exitY=1;exitDx=0;exitDy=0;" edge="1" parent="1" source="eyoQggwB_Yk68HoPjoZL-63" target="eyoQggwB_Yk68HoPjoZL-63">
          <mxGeometry relative="1" as="geometry" />
        </mxCell>
        <mxCell id="eyoQggwB_Yk68HoPjoZL-69" value="&lt;font style=&quot;font-size: 24px;&quot;&gt;end&lt;/font&gt;" style="strokeWidth=2;html=1;shape=mxgraph.flowchart.start_1;whiteSpace=wrap;" vertex="1" parent="1">
          <mxGeometry x="1350" y="730" width="100" height="60" as="geometry" />
        </mxCell>
        <mxCell id="eyoQggwB_Yk68HoPjoZL-70" style="edgeStyle=orthogonalEdgeStyle;rounded=0;orthogonalLoop=1;jettySize=auto;html=1;entryX=0.5;entryY=0;entryDx=0;entryDy=0;entryPerimeter=0;" edge="1" parent="1" source="eyoQggwB_Yk68HoPjoZL-56" target="eyoQggwB_Yk68HoPjoZL-69">
          <mxGeometry relative="1" as="geometry" />
        </mxCell>
      </root>
    </mxGraphModel>
  </diagram>
</mxfile>
